# xmcd
#
# Track frame offsets:
#	150
#	18135
#	37652
#	53527
#	71407
#	84372
#	98520
#	112280
#	125542
#	144685
#	157707
#	172675
#	184957
#	200835
#	217990
#	228080
#	240015
#	254982
#	270477
#	287317
#
# Disc length: 4061
#
# Revision: 3
# Processed by: cddbd v1.5.1PL0 Copyright (c) Steve Scherf et al.
# Submitted via: audiograbber 1.81.03
# Normalized: r2:DSETVAR2
#
DISCID=fd0fdb14
DTITLE=Various Artist - Absolute New Country 2
DYEAR=1995
DGENRE=Country
TTITLE0=The Tractors - Baby Likes To Rock It
TTITLE1=Garth Brooks - Friends In Low Places
TTITLE2=Travis Tritt - Ten Feet Tall And Bulletproof
TTITLE3=Michelle Wright - Take It Like A Man
TTITLE4=John Michael Montgomery - Be My Baby Tonight
TTITLE5=Wynonna - Rock Bottom
TTITLE6=Ricky Lynn Gregg - After The Fire Is Gone
TTITLE7=Dwight Yoakam - Try Not Too Look So Pretty
TTITLE8=Clint Black - Wherever You Go
TTITLE9=Pam Tillis - Mi Vida Loca (My Crazy Life)
TTITLE10=Brooks and Dunn - I'll Never Forgive My Heart
TTITLE11=Sawyer Brown - This Time
TTITLE12=Radney Foster - Nobody Wins
TTITLE13=Tim McCraw - Not A Moment Too Soon
TTITLE14=Clay Walker - If I Could Make A Living
TTITLE15=Tanya Tucker - It's A Little Too Late
TTITLE16=John Berry - You And Only You
TTITLE17=Randy Travis - This Is Me
TTITLE18=Little Texas - Kick A Little
TTITLE19=Henning Stærk - Hallelujah To Amen
EXTD=
EXTT0=
EXTT1=
EXTT2=
EXTT3=
EXTT4=
EXTT5=
EXTT6=
EXTT7=
EXTT8=
EXTT9=
EXTT10=
EXTT11=
EXTT12=
EXTT13=
EXTT14=
EXTT15=
EXTT16=
EXTT17=
EXTT18=
EXTT19=
PLAYORDER=
